<svg xml:space="preserve" style="enable-background:new 0 0 880.1 180.5;" viewBox="0 0 880.1 180.5" height="180.5px" width="880.1px" y="0px" x="0px" xmlns:xlink="http://www.w3.org/1999/xlink" xmlns="http://www.w3.org/2000/svg" version="1.1">
<style type="text/css">
	.st0{fill:#231F20;}
	.st1{fill:#EAF6F6;}
	.st2{fill:url(#SVGID_1_);}
	.st3{fill:url(#SVGID_2_);}
	.st4{fill:url(#SVGID_3_);}
	.st5{fill:#81C8CC;}
	.st6{fill:#4EA9C6;}
	.st7{fill:url(#SVGID_4_);}
	.st8{fill:url(#SVGID_5_);}
	.st9{fill:url(#SVGID_6_);}
	.st10{fill:#002020;}
	.st11{fill:url(#SVGID_7_);}
	.st12{fill:url(#SVGID_8_);}
	.st13{fill:url(#SVGID_9_);}
	.st14{fill:url(#SVGID_10_);}
	.st15{fill:url(#SVGID_11_);}
	.st16{fill:url(#SVGID_12_);}
	.st17{fill:url(#SVGID_13_);}
	.st18{fill:url(#SVGID_14_);}
	.st19{fill:url(#SVGID_15_);}
	.st20{opacity:0.5;fill:#FFF200;}
	.st21{display:none;}
	.st22{display:inline;fill:#171923;}
	.st23{display:inline;fill:#FFF200;}
	.st24{opacity:0.5;}
	.st25{opacity:0.73;fill:url(#SVGID_16_);}
	.st26{fill:url(#SVGID_17_);}
	.st27{fill:url(#SVGID_18_);}
	.st28{opacity:0.73;fill:url(#SVGID_19_);}
	.st29{fill:url(#SVGID_20_);}
	.st30{fill:url(#SVGID_21_);}
	.st31{opacity:0.73;fill:url(#SVGID_22_);}
	.st32{fill:url(#SVGID_23_);}
	.st33{fill:url(#SVGID_24_);}
	.st34{fill:none;stroke:#EC008C;stroke-width:0.5;stroke-miterlimit:10;}
	.st35{fill:none;stroke:#EC008C;stroke-width:0.5;stroke-miterlimit:10;stroke-dasharray:4.8941,4.8941;}
	.st36{fill:#EC008C;}
	.st37{fill:none;stroke:#EC008C;stroke-width:0.5;stroke-miterlimit:10;stroke-dasharray:4.8837,4.8837;}
	.st38{fill:none;stroke:#EC008C;stroke-width:0.3;stroke-miterlimit:10;}
</style>
<g id="Swatches">
</g>
<g id="Black_Horizontal_web">
</g>
<g id="Black_Horizontal">
</g>
<g id="White_Horizontal_web">
	<path d="M58.7,173.3c-8.6-4.7-15-11.6-19.3-20.6c-4.3-9-6.4-19.8-6.4-32.3V72.1H0V40.5h33.5V0H70v40.5h61.7v31.6H70
		V119c0,9.3,1.8,16.3,5.5,21c3.7,4.7,9,7.1,16,7.1c4.8,0,8.8-1,11.9-2.9c3.1-2,5.5-4.8,7-8.6c1.5-3.8,2.3-8.4,2.3-13.9
		c0-3-0.3-6.3-0.8-9.6l34.8-5.1c0.9,4.3,1.3,9.3,1.3,15c0,12.2-2.2,22.6-6.7,31.4c-4.5,8.8-11,15.5-19.7,20.1
		c-8.7,4.6-19.1,7-31.2,7C77.8,180.4,67.3,178.1,58.7,173.3z M261,42.6c-3.5-0.7-7.1-1.1-10.8-1.1c-9.1,0-17.8,1.9-26.2,5.6
		c-8.4,3.7-15.3,9.6-20.6,17.6V40.2h-34.9v26.5v7.8v106h36.7v-70.3c0-8.5,1.9-15.6,5.6-21.3c3.7-5.7,8.6-9.8,14.6-12.4
		c6-2.6,12.6-3.9,19.7-3.9c5.5,0,11.4,0.8,17.6,2.4l7.5-29.8C267.5,44.2,264.4,43.3,261,42.6z M295.3,170.3
		c-9.2-6.8-13.8-16.2-13.8-28.3c0-10.1,3.7-18.5,11-25c7.4-6.5,18.6-11.1,33.7-13.8l55.9-9.7c-0.7-7.9-3.7-13.9-9.1-18.2
		c-5.3-4.3-12.8-6.4-22.4-6.4c-9.2,0-17.2,2.1-23.8,6.3c-6.7,4.2-11.5,10.1-14.5,17.8l-30.9-8.4c2.3-8.4,6.7-16,13.2-22.8
		c6.5-6.8,14.6-12.1,24.5-16c9.9-3.8,20.7-5.8,32.6-5.8c13.8,0,25.6,2.2,35.1,6.7c9.6,4.5,16.9,11.3,22.1,20.4
		c5.1,9.2,7.7,20.7,7.7,34.7v32.7c0,3.8,0.8,6.7,2.5,8.6c1.7,1.9,4,2.9,7.1,2.9c1.6,0,3.2-0.3,4.8-0.8l3.2,29.9
		c-3.7,2.1-10,3.1-18.9,3.1c-11,0-19.3-2.9-24.9-8.8c-5.6-5.8-8.4-14.9-8.4-27.1v-3.7l10.1,11.5c-5.7,9.4-14,16.8-24.9,22.1
		c-10.9,5.3-22.4,8-34.5,8C317,180.5,304.5,177.1,295.3,170.3z M360.1,150.6c6.2-3.1,11.1-7.1,14.6-12c3.5-5,5.3-10.2,5.3-15.6v-6
		l-40.5,7.1c-7.8,1.4-13.6,3.2-17.4,5.5c-3.8,2.3-5.7,5.9-5.7,10.7c0,4.7,1.9,8.4,5.6,11s9.4,3.9,17,3.9
		C346.9,155.1,353.9,153.6,360.1,150.6z M485.1,171.5c-11.6-5.8-20.9-14-27.7-24.7c-6.8-10.6-10.3-22.8-10.3-36.5
		c0-13.4,3.5-25.4,10.4-36.1c6.9-10.7,16.2-19,28-25.1c11.7-6,24.5-9,38.3-9c12.2,0,23.3,2.3,33.3,6.9c9.9,4.6,18.1,10.7,24.4,18.3
		c6.3,7.6,10.2,15.7,11.6,24.4l-35.4,9.4c-1.1-5.6-3.2-10.3-6.4-14.2c-3.2-3.9-7.1-6.9-11.8-9c-4.7-2.1-9.9-3.1-15.6-3.1
		c-7.6,0-14.4,1.6-20.2,4.7c-5.9,3.1-10.4,7.6-13.7,13.3c-3.3,5.7-4.9,12.3-4.9,19.6c0,7.3,1.7,13.8,5.1,19.4
		c3.4,5.7,7.9,10.1,13.7,13.3c5.8,3.2,12.5,4.8,20.1,4.8c5.7,0,10.9-1,15.6-3.1c4.7-2.1,8.7-5.1,11.8-9.1c3.2-4,5.3-8.7,6.4-14.1
		l35.4,9.4c-1.4,8.7-5.3,16.8-11.6,24.4c-6.3,7.6-14.4,13.6-24.4,18.1c-9.9,4.5-21,6.8-33.3,6.8
		C509.7,180.3,496.8,177.4,485.1,171.5z M871,42.5c-3.5-0.7-7.1-1.1-10.8-1.1c-9.1,0-17.8,1.9-26.2,5.6c-8.4,3.7-15.3,9.6-20.6,17.6
		V39.9h-34.9v27v9.3v104.2h36.7v-70.3c0-8.5,1.9-15.6,5.6-21.3c3.7-5.7,8.6-9.8,14.6-12.4c6-2.6,12.6-3.9,19.7-3.9
		c5.5,0,11.4,0.8,17.6,2.4l7.5-29.8C877.5,44.1,874.4,43.2,871,42.5z" class="st10"></path>
	<g>
		<linearGradient y2="82.4616" x2="681.9898" y1="163.0443" x1="742.7133" gradientUnits="userSpaceOnUse" id="SVGID_1_">
			<stop style="stop-color:#64BCB9" offset="0"></stop>
			<stop style="stop-color:#61B7B8" offset="0.2493"></stop>
			<stop style="stop-color:#58A8B3" offset="0.5541"></stop>
			<stop style="stop-color:#488FAD" offset="0.8867"></stop>
			<stop style="stop-color:#4285AA" offset="1"></stop>
		</linearGradient>
		<polygon points="695.1,70.5 666.4,92.5 728.8,174 757.6,152" class="st2"></polygon>
		<linearGradient y2="18.0722" x2="741.8923" y1="162.1319" x1="633.3356" gradientUnits="userSpaceOnUse" id="SVGID_2_">
			<stop style="stop-color:#64BCB9" offset="0"></stop>
			<stop style="stop-color:#61B7B8" offset="0.2493"></stop>
			<stop style="stop-color:#58A8B3" offset="0.5541"></stop>
			<stop style="stop-color:#488FAD" offset="0.8867"></stop>
			<stop style="stop-color:#4285AA" offset="1"></stop>
		</linearGradient>
		<polygon points="646.2,174 617.4,151.9 728.8,6.5 757.6,28.5" class="st3"></polygon>
		<linearGradient y2="159.7561" x2="632.8853" y1="17.6638" x1="632.8853" gradientUnits="userSpaceOnUse" id="SVGID_3_">
			<stop style="stop-color:#64BCB9" offset="0"></stop>
			<stop style="stop-color:#61B7B8" offset="0.2493"></stop>
			<stop style="stop-color:#58A8B3" offset="0.5541"></stop>
			<stop style="stop-color:#488FAD" offset="0.8867"></stop>
			<stop style="stop-color:#4285AA" offset="1"></stop>
		</linearGradient>
		<rect height="144.2" width="36.2" class="st4" y="18.1" x="614.8"></rect>
		<circle r="18.1" cy="18.1" cx="632.9" class="st5"></circle>
		<circle r="18.1" cy="18.3" cx="742.6" class="st6"></circle>
		<circle r="18.1" cy="162.3" cx="632.9" class="st6"></circle>
		<circle r="18.1" cy="162.3" cx="742.6" class="st5"></circle>
	</g>
</g>
<g id="White_Horizontal">
</g>
<g id="Guides__x28_DND_x29_">
	<g id="Safe_Space_00000080909806074650377230000002230958552629104805_">
	</g>
	<g id="Measurements">
	</g>
	<g id="Guides">
	</g>
</g>
</svg>
